<?xml version="1.0" encoding="UTF-8"?>
<svg width="600" height="400" viewBox="0 0 600 400" fill="none" xmlns="http://www.w3.org/2000/svg">
  <!-- Background Circle -->
  <circle cx="300" cy="200" r="180" fill="#ffffff" fill-opacity="0.1"/>
  
  <!-- Laptop Base -->
  <path d="M200 180 L400 180 L420 280 L180 280 Z" fill="#ffffff" fill-opacity="0.2"/>
  
  <!-- Laptop Screen -->
  <path d="M220 80 L380 80 L400 180 L200 180 Z" fill="#ffffff" fill-opacity="0.3"/>
  
  <!-- Lock Icon -->
  <circle cx="300" cy="140" r="25" fill="#ffffff"/>
  <rect x="285" y="130" width="30" height="30" rx="15" fill="#4A55A2"/>
  <circle cx="300" cy="145" r="5" fill="#ffffff"/>
  <rect x="298" y="145" width="4" height="10" fill="#ffffff"/>
  
  <!-- Decorative Elements -->
  <circle cx="150" cy="100" r="10" fill="#ffffff" fill-opacity="0.2"/>
  <circle cx="450" cy="300" r="15" fill="#ffffff" fill-opacity="0.2"/>
  <circle cx="400" cy="50" r="8" fill="#ffffff" fill-opacity="0.2"/>
  <circle cx="200" cy="350" r="12" fill="#ffffff" fill-opacity="0.2"/>
  
  <!-- Abstract Lines -->
  <path d="M50 200 Q 150 100 250 200" stroke="#ffffff" stroke-opacity="0.2" stroke-width="2" fill="none"/>
  <path d="M350 200 Q 450 300 550 200" stroke="#ffffff" stroke-opacity="0.2" stroke-width="2" fill="none"/>
</svg> 